<svg xmlns="http://www.w3.org/2000/svg" width="144" height="311" viewBox="0 0 144 311">
    <g fill="none" fill-rule="evenodd">
        <path fill="#FFB98B" fill-rule="nonzero" d="M134.306 154.655c-1.314-.872-2.89-1.917-5.692-5.229-1.663-2.004-3.94-3.398-6.391-4.357-.438-.174-.876-.348-1.313-.61-.788-.522-.963-1.742-1.139-2.614-.175-.871-.35-1.743-.612-2.614-.438-1.743-.876-4.531-.876-9.237 0-11.066-2.276-20.652-3.502-23.179-1.226-2.614-2.014-4.53-3.415-14.987-1.4-10.457 1.314-8.714 0-21.35-1.313-12.635-11.032-14.813-15.41-15.859-4.377-1.045-13.308-4.705-15.059-6.012-.875-.61-.963-3.922-.875-7.146 1.313-2.004 2.013-4.705 2.539-7.058.175.261.613.784 1.05.784.526 0 1.314-1.655 1.576-2.614.263-.958.613-4.008.176-5.228-.35-1.133-1.226-.262-1.576.174-.088.174-.35.349-.526.436.088-1.569.175-3.05.35-4.619.438-3.05.263-5.925-.788-8.8C80.635 8.435 72.23 8 71.003 8c-1.138 0-9.63.436-11.82 6.623-1.05 2.875-1.225 5.838-.787 8.8.262 1.57.262 3.05.35 4.619-.263-.174-.438-.261-.525-.436-.263-.435-1.139-1.394-1.576-.174-.35 1.133 0 4.27.175 5.228.262.959 1.05 2.614 1.576 2.614.438 0 .875-.522 1.05-.784.526 2.353 1.139 5.054 2.54 7.058.087 3.137-.088 6.449-.876 7.146C59.359 50 50.428 53.66 46.05 54.706c-4.377 1.046-14.096 3.225-15.409 15.86-1.313 12.635 1.4 10.892 0 21.349-1.4 10.456-2.189 12.46-3.415 14.988-1.225 2.614-3.502 12.112-3.502 23.179 0 4.705-.438 7.493-.875 9.236-.263.872-.438 1.743-.613 2.614-.175.872-.35 2.092-1.138 2.615-.35.261-.876.435-1.314.61-2.451.958-4.728 2.352-6.391 4.356-2.802 3.399-4.378 4.357-5.691 5.229-1.314.871-.876 3.224 2.101 2.527 2.977-.697 4.903-4.444 5.691-4.183.7.262-.788 5.751-1.4 7.668-.614 1.917-1.227 4.096-1.577 5.316-.35 1.133-.788 3.224.088 4.444.875 1.133 2.101-.349 2.977-3.398.875-3.05 2.626-8.453 2.626-8.453s-.963 4.531-1.663 7.32c-.7 2.788-2.54 6.274-.963 7.58.875.698 1.838-.173 2.364-1.48.525-1.308 1.225-3.573 1.313-3.835.525-2.265 2.101-8.452 2.101-8.452s-.963 5.141-1.576 7.668c-.35 1.394-1.138 3.137-1.05 4.27 0 .871.7 1.481 1.576 1.22.788-.262 1.576-2.092 2.013-4.009.526-2.004 1.226-5.576 1.664-7.32.175-.61.438-1.306.438-.783 0 1.045-.876 3.92-1.139 5.402-.35 1.83-.262 3.137.613 3.224.526.087 1.05-.087 1.489-.871.525-.959 1.05-3.311 1.4-5.054.613-2.789 1.489-5.316 1.84-7.756.35-2.44.875-7.58 1.225-9.236.35-1.656 1.138-3.834 1.138-3.834h-.087c1.488-4.706 5.165-15.86 7.53-22.744 3.064-8.8 2.013-11.85 2.45-15.597.264-2.44 2.89-8.627 4.816-15.25 2.802 5.926 5.779 14.64 4.028 23.266-3.065 15.075-2.101 10.718-3.065 15.075-1.05 4.88-2.1 9.586-2.626 14.553-1.05 11.066-1.926 22.307-.175 33.287.613 4.008 2.977 27.187 2.801 27.971-.525 3.05-2.364 9.324-3.064 12.897-.7 3.572-.35 8.888-.088 18.647.263 9.76 1.489 17.254 1.927 22.657.35 4.618-.35 16.382-.526 19.606 0 .61-.175 1.133-.35 1.655-.438 1.22-1.05 2.876-1.75 4.27-1.314 2.527-4.466 7.407-5.43 8.453-1.05 1.045-2.714 3.485-1.138 4.182.526.262.788 0 .788 0-.175.785.176 1.656.613 1.917.438.175.876.175.876.175.087.61.788 1.83 2.364 1.394 0 0 .35 1.394 1.576 1.481.438 0 .788 0 1.138-.174.35-.174.7-.523 1.138-1.481 0 0-.262 1.22 1.226 1.83 1.488.61 3.327-.088 4.29-2.092.963-1.917.788-2.353 1.576-4.008.788-1.656.438-6.1.963-7.93.526-1.83 2.19-2.44 2.364-3.921.088-.871.088-2.614-.087-4.183l.087-6.71.175-2.962c.263-4.619.876-9.237 1.751-13.768 1.489-7.668 3.503-20.303 4.115-27.972.788-10.282 1.752-18.909 2.364-20.564 0-.088.088-.175.088-.349 2.014-6.274 3.502-12.81 4.29-19.345.263-2.091.438-4.357.613-6.797.788-10.805.438-16.73 2.364-16.992 1.926.262 1.576 6.187 2.364 16.992.175 2.44.35 4.793.613 6.797.788 6.623 2.189 13.071 4.29 19.345 0 .174.088.261.088.349.525 1.655 1.488 10.282 2.364 20.564.612 7.669 2.626 20.39 4.115 27.972.875 4.531 1.488 9.15 1.75 13.768l.176 2.963.087 6.71c-.175 1.568-.175 3.31-.087 4.182.175 1.481 1.839 2.091 2.364 3.921.525 1.83.175 6.187.963 7.93.788 1.655.7 2.091 1.576 4.008.963 1.917 2.714 2.614 4.29 2.092 1.489-.61 1.226-1.83 1.226-1.83.438.958.788 1.307 1.138 1.481.35.174.788.174 1.138.174 1.226-.087 1.576-1.481 1.576-1.481 1.576.436 2.277-.784 2.364-1.394 0 0 .526.087.876-.175.525-.261.875-1.132.613-1.917 0 0 .262.262.788 0 1.576-.697-.088-3.224-1.139-4.182-1.05-1.046-4.115-5.839-5.428-8.453-.788-1.481-1.4-3.137-1.751-4.27-.175-.522-.263-1.132-.35-1.655-.175-3.224-.876-14.988-.526-19.606.438-5.316 1.664-12.897 1.927-22.657.262-9.76.612-15.075-.088-18.647-.7-3.573-2.451-9.847-3.064-12.897-.175-.784 2.189-23.963 2.801-27.971 1.751-10.98.963-22.22-.175-33.287-.437-4.967-1.576-9.76-2.626-14.553-.963-4.357 0 0-3.065-15.075-1.75-8.626 1.138-17.34 4.028-23.266 1.838 6.623 4.465 12.723 4.815 15.25.438 3.747-.613 6.796 2.452 15.597 2.364 6.797 6.041 18.038 7.53 22.744h-.088s.788 2.178 1.138 3.834c.35 1.655.876 6.71 1.226 9.236.35 2.44 1.226 5.055 1.839 7.756.35 1.743.875 4.095 1.4 5.054.438.784.963.958 1.489.871.875-.087.963-1.394.613-3.224-.263-1.394-1.051-4.27-1.139-5.402 0-.523.263.174.438.784.438 1.743 1.226 5.315 1.664 7.32.438 1.916 1.226 3.746 2.014 4.008.875.261 1.576-.349 1.576-1.22 0-1.133-.788-2.876-1.051-4.27-.613-2.44-1.576-7.668-1.576-7.668s1.576 6.187 2.101 8.452c.088.175.7 2.44 1.314 3.834.525 1.308 1.575 2.179 2.363 1.482 1.576-1.307-.262-4.88-.963-7.581-.7-2.789-1.663-7.32-1.663-7.32s1.75 5.403 2.626 8.453c.876 3.05 2.102 4.53 2.977 3.398.876-1.133.438-3.311.088-4.444s-.963-3.399-1.576-5.316c-.613-1.917-2.189-7.406-1.401-7.668.7-.261 2.714 3.573 5.691 4.183 3.152.61 3.59-1.743 2.277-2.614z" transform="translate(1 1)"/>
        <path stroke="#979797" d="M39 119H103V137H39z" transform="translate(1 1)"/>
        <path stroke="#9B9B9B" d="M0 149H39V177H0zM103 147H142V175H103z" transform="translate(1 1)"/>
        <path stroke="#69B8E9" d="M25 58H117V76H25z" transform="translate(1 1)"/>
        <path stroke="#979797" d="M53 0H89V36H53zM53 40H89V54H53zM25 273H117V309H25zM25 189H117V225H25z" transform="translate(1 1)"/>
    </g>
</svg>
