<svg xmlns="http://www.w3.org/2000/svg" width="810" height="423" viewBox="0 0 810 423">
    <g fill="none" fill-rule="evenodd">
        <path fill="#69B8E9" d="M810 422H0V107.32c112.138 73.993 378.968 124.031 563.195 60.951C662.318 134.47 746.922 123.29 810 121.427V422z" transform="translate(0 1)"/>
        <g fill-rule="nonzero">
            <g fill="#69B8E9">
                <path d="M39.233 36.762c-5.477 4.525-11.71 5.845-16.81 5.279v.189C17.322 53.164 5.8 58.066 2.21 70.508c-2.455 8.672-3.4 19.795.378 27.902 1.511 3.016 8.122 15.27 10.389 14.893l.189.189c5.666-3.394 11.9-6.033 18.889-7.73l12.655-2.639 1.322-.189c4.534-.942 8.311-4.336 10.011-8.672 1.134-3.393 2.456-7.164 3.212-9.803 1.7-5.656 2.077-12.254 1.7-17.156l.566-.565c-8.878-6.787-17.189-17.533-22.289-29.976zM164.656 45.246c-4.912-12.443-14.356-20.55-24.178-29.033C135.188 11.5 130.844 5.28 126.5.19c-.378 1.32-.944 2.827-1.7 4.147-.756 1.508-1.511 3.205-2.267 4.713v.943c4.911 0 9.067 5.467 9.067 12.254S127.633 34.5 122.533 34.5c-1.322 0-2.644-.377-3.777-1.131-4.723 13.762-13.034 26.016-22.478 33.369l1.7.188c0 5.09-1.134 10.18-.19 15.082.756 3.96 1.512 6.787 2.456 9.238 1.7 5.467 6.234 9.426 11.712 10.934l13.788 3.394c2.078.565 3.967 1.13 5.856 1.696 5.478 1.886 10.389 4.337 14.922 7.353 5.856-5.656 9.822-10.746 13.6-17.721 8.878-16.59 11.711-33.37 4.534-51.656z" transform="translate(0 1) translate(304) translate(22 52)"/>
            </g>
            <path fill="#69B8E9" d="M67.157 156.375c.19 3.379-.38 6.195.758 9.573.948 2.816 2.654 5.256 4.36 7.696 4.928 6.57 12.888 9.197 20.66 10.136 3.79.563 7.77-.188 11.562-.375 21.608-1.127 32.032-20.648 32.032-26.842l.19-.563 11.562 2.816c2.085.563 3.98 1.126 5.876 1.689v.188c-2.085 17.831 1.137 44.86 2.843 52.932L44.98 214s1.706-24.214.948-30.97c-.569-5.632-1.137-13.703-4.549-18.583l-.379-.939c4.17-2.065 8.719-3.566 13.458-4.692l12.699-2.628v.187z" transform="translate(0 1) translate(304)"/>
            <path fill="#222D8C" d="M152.148 74.368c.379 6.968-3.223 10.17-10.805 9.792-.948-.376-1.706 0-2.085.754-5.687 15.63-19.146 39.359-38.86 39.17-18.955-.188-33.172-23.916-39.238-38.982-.379-.942-1.137-1.318-2.085-.753-11.373 4.896-14.217-17.702-3.412-20.904.569-.188.948-.753 1.138-1.318.379-24.481 10.236-48.586 37.532-51.223 29.76-2.825 47.958 24.293 48.905 51.223 0 .753.57 1.507 1.517 1.507 5.118 1.506 7.772 5.273 7.393 10.734.19 1.883 3.032 1.883 2.843 0-.38-4.52-1.517-9.604-5.687-12.24 1.138.752-3.601-1.507-3.222-1.32-2.844-2.447.19 1.884-.758-.94-.759-2.26-.19-9.228-.948-12.242-3.223-12.805-10.426-24.858-21.61-32.39C104.38 2.994 77.083 6.383 63.814 24.65c-3.601 4.897-5.876 10.546-7.393 16.384-1.516 5.462-.568 16.196-3.601 20.527-2.654 3.767-5.876 4.708-6.635 10.17-.758 5.084.759 11.864 5.498 14.877 1.516.941 2.843.941 4.738 1.506 4.17 1.13.57-1.318 3.412 1.13 2.275 1.883 3.981 8.098 5.498 10.734 2.085 3.39 4.549 6.78 7.013 9.793 7.393 8.663 18.198 18.267 30.519 17.137 15.733-1.507 27.675-16.76 34.31-29.566 1.137-2.072 2.464-8.286 4.549-9.793 0 0 4.739.189 5.118.189 5.687-1.695 7.582-8.098 7.961-13.371.38-1.695-2.464-1.695-2.653 0z" transform="translate(0 1) translate(304)"/>
            <path fill="#222D8C" d="M97.583 68.403c0 2.244.592 6.172-.395 8.23-.986 2.057-4.143 2.43-4.932 4.675-1.381 3.367 3.157 6.172 5.721 7.482 1.579.935 3.157-1.497 1.579-2.432-.987-.56-2.565-1.31-3.157-2.057-1.184-1.684-.394-2.806.987-3.74.986-.75 2.17-1.497 2.762-2.806 1.183-2.619.789-6.547.789-9.352-.395-1.87-3.354-1.87-3.354 0zM79 60.07c0 3.682.4 7.178.4 10.86 0 2.76 4.6 2.76 4.6 0 0-3.682-.4-7.178-.4-10.86.2-2.76-4.6-2.76-4.6 0zM115 60.07c0 3.682.4 7.178.4 10.86 0 2.76 4.6 2.76 4.6 0 0-3.682-.4-7.178-.4-10.86 0-2.76-4.6-2.76-4.6 0zM200.858 207.817c-8.841-20.272-22.008-39.043-43.075-47.865-7.147-3.003-14.483-4.13-21.819-6.194-16.176-4.505-15.424-20.648-14.86-34.35 0-1.877-2.82-1.877-2.82 0-.377 10.324-1.506 23.088 6.206 31.347 5.079 5.255 12.79 6.006 19.562 7.695 27.274 6.758 43.639 25.716 54.548 50.68.565 1.878 3.01.376 2.258-1.313zM2.59 210.252c10.734-24.84 27.306-45.13 54.611-51.199 6.591-1.517 14.688-1.706 19.208-7.395 6.59-8.154 7.91-22.186 7.532-32.236 0-1.896-2.824-1.896-2.824 0 .376 12.515-1.883 31.478-16.007 35.08-7.532 1.897-14.877 2.845-22.032 5.879-20.903 8.912-34.085 27.875-42.936 48.354-.753 1.706 1.695 3.223 2.448 1.517zM96.4 99.716c5.774.762 11.934.19 16.168-4.193 1.348-1.334-.77-3.43-2.117-2.096-3.657 3.811-9.047 4.002-14.244 3.43-1.732-.38-1.54 2.478.193 2.859z" transform="translate(0 1) translate(304)"/>
            <path fill="#69B8E9" d="M126.578 79.523c-2.662-.703-11.977-1.23-12.548 2.109-.76 4.392 12.928 3.865 15.59 1.932 4.372-2.635-3.042-4.04-3.042-4.04zM79.578 79.523c-2.662-.703-11.977-1.23-12.548 2.109-.76 4.392 12.928 3.865 15.59 1.932 4.372-2.635-3.042-4.04-3.042-4.04z" transform="translate(0 1) translate(304)"/>
            <path fill="#222D8C" d="M65 155.4c.189 23.904 21.919 31.187 42.892 27.826 12.849-2.241 28.154-13.633 29.099-27.639.189-1.867-2.645-1.867-2.834 0-.756 10.832-12.471 20.73-22.297 23.717-19.273 6.163-43.837-.56-43.837-23.903-.189-1.868-3.023-1.868-3.023 0zM40.216 164.15c7.686 14.067 4.42 34.217 3.267 49.424-.192 1.901 2.69 1.901 2.882 0 1.153-15.967 4.42-36.307-3.65-50.944-.962-1.52-3.46 0-2.499 1.52zM151.813 159.278c-1.776 17.605-.533 36.346 2.665 53.762.355 1.703 2.843.946 2.487-.758-3.197-17.037-4.263-35.588-2.487-53.004.178-1.704-2.487-1.704-2.665 0z" transform="translate(0 1) translate(304)"/>
            <g>
                <path fill="#69B8E9" stroke="#222D8C" stroke-linecap="round" stroke-linejoin="round" stroke-width="1.526" d="M114.978 36.647c-1.89-6.4-3.59-12.988-10.2-16-1.134-.565-2.267-.941-3.59-1.318-1.321-.376-1.888-1.694-1.321-3.011.566-1.318 1.133-2.824 1.322-4.33.755-4.14-4.722-7.717-6.611-8.282C78.71-.435 62.656-1 46.788 2.765c-18.51 4.33-37.21 21.082-34.188 41.6 1.322 8.659 5.667 16.94 5.667 25.788 0 4.141-1.511 8.847-4.156 12.047-2.267 3.012-6.233 3.2-9.822 3.388-1.133 0-2.456.188-3.59-.188-.188 9.412 24.179 14.682 34.945-7.53 5.667-11.858 5.29-20.894 12.467-28.8 2.833-3.011 6.422-4.894 10.578-5.835 4.722-1.13 9.255-2.635 13.789-4.33 10.2-3.387 13.222-6.21 13.222-6.023 1.511 6.024 2.267 13.177 6.044 19.2 3.59 5.836 8.5 10.353 12.09 16.189.944 1.317 3.022 1.317 3.777-.189 2.078-3.953 3.967-8.282 5.856-12.235 3.589-6.023 3.777-12.235 1.51-19.2z" transform="translate(0 1) translate(304) translate(33)"/>
                <path fill="#222D8C" d="M93.256 28.176C93.444 38.53 99.11 48.13 104.589 56.6c.944 1.506 3.589.188 2.455-1.506-5.288-7.906-10.766-17.13-10.955-26.918 0-1.694-2.833-1.882-2.833 0zM26.956 66.953c-2.834-12.047-.378-27.67 7.744-37.27 5.667-6.777 13.978-9.789 22.289-12.048C67 15 77.767 13.871 88.156 13.871c1.888 0 1.888-2.824 0-2.824-13.79 0-28.523 1.694-41.367 6.965-19.456 7.906-27.2 29.93-22.667 49.694.378 1.882 3.211 1.13 2.834-.753z" transform="translate(0 1) translate(304) translate(33)"/>
                <path fill="#222D8C" d="M33.756 58.859c5.477-14.87 13.41-25.035 27.2-32.565 8.122-4.33 18.51-10.918 27.955-12.047 1.889-.188 1.889-3.012 0-2.823-10.578 1.129-22.289 8.47-31.167 13.552-13.6 7.53-21.344 18.636-26.822 33.13-.566 1.694 2.267 2.447 2.834.753z" transform="translate(0 1) translate(304) translate(33)"/>
            </g>
            <path fill="#222D8C" d="M42.91 93.817c-4.425 8.062-12.313 13.311-17.315 20.998-4.232 6.749-5.772 15.56-5.58 23.435.193 6.749 2.117 12.56 5.58 18.372 1.732 3.188 4.618 9.374 8.658 10.312 2.116.562 2.886-2.625.962-3.187-3.463-.75-6.926-9-8.465-11.812-4.04-7.874-4.04-16.31-2.31-24.747 2.887-13.686 15.007-20.06 21.356-31.684.962-1.874-1.731-3.562-2.886-1.687zM147.403 52.758c6.843 7.725 13.306 15.073 21.1 22.045 8.554 7.725 15.398 16.203 18.82 27.131 7.033 22.799-3.042 47.104-19.58 63.308-1.521 1.507.76 3.768 2.28 2.26 15.779-15.26 26.234-37.87 22.052-60.104-2.091-11.116-7.224-20.725-15.018-28.827-3.992-4.334-8.554-7.913-12.926-11.87-5.323-4.899-9.695-10.74-14.447-16.204-1.33-1.507-3.612.754-2.281 2.261z" transform="translate(0 1) translate(304)"/>
            <path fill="#222D8C" d="M48.499 158.68c-11.756-10.225-7.837-23.1 1.865-32.757C56.15 120.243 60.627 114.94 61 106.42c0-1.893-2.799-1.893-2.799 0-.56 13.633-14.927 17.799-19.032 29.538-3.172 9.278.373 18.556 7.464 24.615 1.306 1.326 3.358-.757 1.866-1.893zM64.277 154.479c-7.254-8.569 5.293-20.564 7.646-28.751.588-1.714-2.353-2.476-2.941-.762-2.745 9.52-15.684 21.516-7.058 31.607 1.568 1.333 3.529-.761 2.353-2.094zM152.81 159.926c9.614-3.195 14.42-13.906 17.563-22.926 5.176-15.221 1.664-29.69-1.664-44.912-.37-1.879-3.143-1.127-2.773.752 2.958 13.154 6.47 26.12 2.958 39.65-2.403 9.02-7.395 21.798-16.823 24.805-1.849.376-1.11 3.194.74 2.63zM143.823 114.857c3.432 12.895 4.515 29.202-5.418 39.632-1.264 1.327.722 3.413 1.987 2.086 10.655-11.188 9.752-28.444 6.14-42.477-.542-1.896-3.25-1.137-2.709.759z" transform="translate(0 1) translate(304)"/>
        </g>
    </g>
</svg>
